<svg width="192" height="192" viewBox="0 0 192 192" xmlns="http://www.w3.org/2000/svg">
  <defs>
    <linearGradient id="automationGradient192" x1="0%" y1="0%" x2="100%" y2="100%">
      <stop offset="0%" style="stop-color:#0EA5E9;stop-opacity:1" />
      <stop offset="50%" style="stop-color:#3B82F6;stop-opacity:1" />
      <stop offset="100%" style="stop-color:#1D4ED8;stop-opacity:1" />
    </linearGradient>
    <linearGradient id="gearGradient192" x1="0%" y1="0%" x2="100%" y2="100%">
      <stop offset="0%" style="stop-color:#64748B;stop-opacity:1" />
      <stop offset="100%" style="stop-color:#94A3B8;stop-opacity:1" />
    </linearGradient>
  </defs>
  
  <!-- Background for Android -->
  <rect width="192" height="192" rx="24" fill="#F8FAFC"/>
  
  <!-- Main automation symbol -->
  <g transform="translate(96, 96)">
    <!-- Outer circle -->
    <circle cx="0" cy="0" r="70" fill="none" stroke="url(#automationGradient192)" stroke-width="6"/>
    
    <!-- Central hub -->
    <circle cx="0" cy="0" r="9" fill="url(#automationGradient192)"/>
    
    <!-- Circuit nodes -->
    <circle cx="0" cy="-50" r="6" fill="url(#automationGradient192)"/>
    <circle cx="35" cy="-35" r="5" fill="url(#automationGradient192)"/>
    <circle cx="50" cy="0" r="6" fill="url(#automationGradient192)"/>
    <circle cx="35" cy="35" r="5" fill="url(#automationGradient192)"/>
    <circle cx="0" cy="50" r="6" fill="url(#automationGradient192)"/>
    <circle cx="-35" cy="35" r="5" fill="url(#automationGradient192)"/>
    <circle cx="-50" cy="0" r="6" fill="url(#automationGradient192)"/>
    <circle cx="-35" cy="-35" r="5" fill="url(#automationGradient192)"/>
    
    <!-- Connection lines -->
    <line x1="0" y1="0" x2="0" y2="-50" stroke="url(#automationGradient192)" stroke-width="2.5" opacity="0.7"/>
    <line x1="0" y1="0" x2="35" y2="-35" stroke="url(#automationGradient192)" stroke-width="2.5" opacity="0.7"/>
    <line x1="0" y1="0" x2="50" y2="0" stroke="url(#automationGradient192)" stroke-width="2.5" opacity="0.7"/>
    <line x1="0" y1="0" x2="35" y2="35" stroke="url(#automationGradient192)" stroke-width="2.5" opacity="0.7"/>
    <line x1="0" y1="0" x2="0" y2="50" stroke="url(#automationGradient192)" stroke-width="2.5" opacity="0.7"/>
    <line x1="0" y1="0" x2="-35" y2="35" stroke="url(#automationGradient192)" stroke-width="2.5" opacity="0.7"/>
    <line x1="0" y1="0" x2="-50" y2="0" stroke="url(#automationGradient192)" stroke-width="2.5" opacity="0.7"/>
    <line x1="0" y1="0" x2="-35" y2="-35" stroke="url(#automationGradient192)" stroke-width="2.5" opacity="0.7"/>
  </g>
  
  <!-- Gear elements -->
  <g transform="translate(45, 45) scale(0.7)">
    <circle cx="0" cy="0" r="14" fill="url(#gearGradient192)" opacity="0.6"/>
    <circle cx="0" cy="0" r="7" fill="none" stroke="url(#gearGradient192)" stroke-width="2"/>
  </g>
  
  <g transform="translate(147, 147) scale(0.5)">
    <circle cx="0" cy="0" r="10" fill="url(#gearGradient192)" opacity="0.4"/>
  </g>
</svg>