<svg width="180" height="180" viewBox="0 0 180 180" xmlns="http://www.w3.org/2000/svg">
  <defs>
    <linearGradient id="automationGradient180" x1="0%" y1="0%" x2="100%" y2="100%">
      <stop offset="0%" style="stop-color:#0EA5E9;stop-opacity:1" />
      <stop offset="50%" style="stop-color:#3B82F6;stop-opacity:1" />
      <stop offset="100%" style="stop-color:#1D4ED8;stop-opacity:1" />
    </linearGradient>
    <linearGradient id="gearGradient180" x1="0%" y1="0%" x2="100%" y2="100%">
      <stop offset="0%" style="stop-color:#64748B;stop-opacity:1" />
      <stop offset="100%" style="stop-color:#94A3B8;stop-opacity:1" />
    </linearGradient>
  </defs>
  
  <!-- Background -->
  <rect width="180" height="180" rx="20" fill="#F8FAFC"/>
  
  <!-- Main automation symbol -->
  <g transform="translate(90, 90)">
    <!-- Outer circle -->
    <circle cx="0" cy="0" r="65" fill="none" stroke="url(#automationGradient180)" stroke-width="6"/>
    
    <!-- Central hub -->
    <circle cx="0" cy="0" r="8" fill="url(#automationGradient180)"/>
    
    <!-- Circuit nodes -->
    <circle cx="0" cy="-45" r="5" fill="url(#automationGradient180)"/>
    <circle cx="32" cy="-32" r="4" fill="url(#automationGradient180)"/>
    <circle cx="45" cy="0" r="5" fill="url(#automationGradient180)"/>
    <circle cx="32" cy="32" r="4" fill="url(#automationGradient180)"/>
    <circle cx="0" cy="45" r="5" fill="url(#automationGradient180)"/>
    <circle cx="-32" cy="32" r="4" fill="url(#automationGradient180)"/>
    <circle cx="-45" cy="0" r="5" fill="url(#automationGradient180)"/>
    <circle cx="-32" cy="-32" r="4" fill="url(#automationGradient180)"/>
    
    <!-- Connection lines -->
    <line x1="0" y1="0" x2="0" y2="-45" stroke="url(#automationGradient180)" stroke-width="2" opacity="0.7"/>
    <line x1="0" y1="0" x2="32" y2="-32" stroke="url(#automationGradient180)" stroke-width="2" opacity="0.7"/>
    <line x1="0" y1="0" x2="45" y2="0" stroke="url(#automationGradient180)" stroke-width="2" opacity="0.7"/>
    <line x1="0" y1="0" x2="32" y2="32" stroke="url(#automationGradient180)" stroke-width="2" opacity="0.7"/>
    <line x1="0" y1="0" x2="0" y2="45" stroke="url(#automationGradient180)" stroke-width="2" opacity="0.7"/>
    <line x1="0" y1="0" x2="-32" y2="32" stroke="url(#automationGradient180)" stroke-width="2" opacity="0.7"/>
    <line x1="0" y1="0" x2="-45" y2="0" stroke="url(#automationGradient180)" stroke-width="2" opacity="0.7"/>
    <line x1="0" y1="0" x2="-32" y2="-32" stroke="url(#automationGradient180)" stroke-width="2" opacity="0.7"/>
  </g>
  
  <!-- Gear element -->
  <g transform="translate(40, 40) scale(0.6)">
    <circle cx="0" cy="0" r="12" fill="url(#gearGradient180)" opacity="0.6"/>
    <circle cx="0" cy="0" r="6" fill="none" stroke="url(#gearGradient180)" stroke-width="2"/>
  </g>
</svg>