<svg width="180" height="180" viewBox="0 0 180 180" xmlns="http://www.w3.org/2000/svg">
  <defs>
    <linearGradient id="nGradient180" x1="0%" y1="0%" x2="100%" y2="100%">
      <stop offset="0%" style="stop-color:#1D4ED8;stop-opacity:1" />
      <stop offset="50%" style="stop-color:#3B82F6;stop-opacity:1" />
      <stop offset="100%" style="stop-color:#60A5FA;stop-opacity:1" />
    </linearGradient>
    <filter id="glow180">
      <feGaussianBlur stdDeviation="2" result="coloredBlur"/>
      <feMerge> 
        <feMergeNode in="coloredBlur"/>
        <feMergeNode in="SourceGraphic"/>
      </feMerge>
    </filter>
  </defs>
  
  <!-- Background -->
  <circle cx="90" cy="90" r="85" fill="#0F172A"/>
  
  <!-- N letter optimized for Apple touch icon -->
  <g transform="translate(50, 32)">
    <path d="M0 20 L0 120 C0 125 3 128 8 128 L18 128 C23 128 26 125 26 120 L26 60 L54 120 C55 122 57 123 59 123 L69 123 C74 123 77 120 77 115 L77 20 C77 15 74 12 69 12 L59 12 C54 12 51 15 51 20 L51 80 L23 20 C22 18 20 17 18 17 L8 17 C3 17 0 20 0 20 Z" 
          fill="url(#nGradient180)" 
          filter="url(#glow180)"
          stroke="#60A5FA" 
          stroke-width="1"/>
  </g>
  
  <!-- Tech elements for Apple touch -->
  <circle cx="40" cy="50" r="4" fill="#60A5FA" opacity="0.7"/>
  <circle cx="140" cy="70" r="3.5" fill="#3B82F6" opacity="0.6"/>
  <circle cx="130" cy="130" r="3" fill="#60A5FA" opacity="0.5"/>
  <circle cx="45" cy="140" r="3.5" fill="#3B82F6" opacity="0.4"/>
  
  <!-- Connection lines -->
  <line x1="40" y1="50" x2="140" y2="70" stroke="#3B82F6" stroke-width="1" opacity="0.3"/>
  <line x1="140" y1="70" x2="130" y2="130" stroke="#60A5FA" stroke-width="1" opacity="0.3"/>
</svg>