<svg width="32" height="32" viewBox="0 0 32 32" xmlns="http://www.w3.org/2000/svg">
  <defs>
    <linearGradient id="automationGradient32" x1="0%" y1="0%" x2="100%" y2="100%">
      <stop offset="0%" style="stop-color:#0EA5E9;stop-opacity:1" />
      <stop offset="100%" style="stop-color:#1D4ED8;stop-opacity:1" />
    </linearGradient>
  </defs>
  
  <!-- Background -->
  <rect width="32" height="32" rx="3" fill="#F8FAFC"/>
  
  <!-- Automation symbol for 32px -->
  <g transform="translate(16, 16)">
    <!-- Main circle -->
    <circle cx="0" cy="0" r="12" fill="none" stroke="url(#automationGradient32)" stroke-width="2"/>
    
    <!-- Central hub -->
    <circle cx="0" cy="0" r="2" fill="url(#automationGradient32)"/>
    
    <!-- Circuit nodes -->
    <circle cx="0" cy="-8" r="1.5" fill="url(#automationGradient32)"/>
    <circle cx="6" cy="-6" r="1" fill="url(#automationGradient32)"/>
    <circle cx="8" cy="0" r="1.5" fill="url(#automationGradient32)"/>
    <circle cx="6" cy="6" r="1" fill="url(#automationGradient32)"/>
    <circle cx="0" cy="8" r="1.5" fill="url(#automationGradient32)"/>
    <circle cx="-6" cy="6" r="1" fill="url(#automationGradient32)"/>
    <circle cx="-8" cy="0" r="1.5" fill="url(#automationGradient32)"/>
    <circle cx="-6" cy="-6" r="1" fill="url(#automationGradient32)"/>
    
    <!-- Connection lines -->
    <line x1="0" y1="0" x2="0" y2="-8" stroke="url(#automationGradient32)" stroke-width="0.5" opacity="0.6"/>
    <line x1="0" y1="0" x2="8" y2="0" stroke="url(#automationGradient32)" stroke-width="0.5" opacity="0.6"/>
    <line x1="0" y1="0" x2="0" y2="8" stroke="url(#automationGradient32)" stroke-width="0.5" opacity="0.6"/>
    <line x1="0" y1="0" x2="-8" y2="0" stroke="url(#automationGradient32)" stroke-width="0.5" opacity="0.6"/>
  </g>
  
  <!-- Small gear -->
  <g transform="translate(24, 8) scale(0.3)">
    <circle cx="0" cy="0" r="3" fill="#64748B" opacity="0.5"/>
  </g>
</svg>