<svg width="16" height="16" viewBox="0 0 16 16" xmlns="http://www.w3.org/2000/svg">
  <defs>
    <linearGradient id="nGradient16" x1="0%" y1="0%" x2="100%" y2="100%">
      <stop offset="0%" style="stop-color:#1D4ED8;stop-opacity:1" />
      <stop offset="100%" style="stop-color:#60A5FA;stop-opacity:1" />
    </linearGradient>
  </defs>
  
  <!-- Background -->
  <rect width="16" height="16" rx="2" fill="#0F172A"/>
  
  <!-- Ultra simple N for 16px -->
  <g transform="translate(3, 2)">
    <path d="M0 2 L0 10 C0 10.5 0.5 11 1 11 L1.5 11 C2 11 2.5 10.5 2.5 10 L2.5 6 L7.5 10 C7.8 10.3 8.2 10.3 8.5 10.3 L9 10.3 C9.5 10.3 10 9.8 10 9.3 L10 2 C10 1.5 9.5 1 9 1 L8.5 1 C8 1 7.5 1.5 7.5 2 L7.5 6 L2.5 2 C2.2 1.7 1.8 1.7 1.5 1.7 L1 1.7 C0.5 1.7 0 2.2 0 2 Z" 
          fill="url(#nGradient16)"/>
  </g>
  
  <!-- Single dot -->
  <circle cx="3" cy="4" r="0.8" fill="#60A5FA" opacity="0.5"/>
</svg>